# xmcd CD database file
#
# Track frame offsets:
#	150
#	15710
#	31208
#	44557
#	58401
#	79963
#	92075
#	110260
#	120704
#	134413
#	144102
#	157233
#	173909
#	186547
#
# Disc length: 2712 seconds
#
# Revision: 0
# Processed by: cddbd v1.5.2PL0 Copyright (c) Steve Scherf et al.
# Submitted via: CDex 1.70beta2
#
DISCID=c90a960e
DTITLE=Alice Babs - As Time Goes By
DYEAR=1900
DGENRE=Jazz
TTITLE0=Stormy Monday
TTITLE1=I didn't know about you
TTITLE2=How deep is the ocean
TTITLE3=No words blues
TTITLE4=Can't we be friends
TTITLE5=Cottage for sale
TTITLE6=Love is here to stay
TTITLE7=The lady's in love with you
TTITLE8=Many tears ago
TTITLE9=If I could be with you the hour tonight
TTITLE10=If I were Eve
TTITLE11=More understanding than a man
TTITLE12=Flamingo
TTITLE13=As time goes by
EXTD=
EXTT0=
EXTT1=
EXTT2=
EXTT3=
EXTT4=
EXTT5=
EXTT6=
EXTT7=
EXTT8=
EXTT9=
EXTT10=
EXTT11=
EXTT12=
EXTT13=
PLAYORDER=
